# xmcd
#
# Track frame offsets:
#	150
#	23202
#	42400
#	74170
#	108445
#
# Disc length: 4440 seconds
#
# Revision: 3
# Processed by: cddbd v1.5PL3 Copyright (c) Steve Scherf et al.
# Submitted via: BCDEx v0.0.9beta
#
DISCID=45115605
DTITLE=星井七瀬 - 恋愛15シミュレーショ
DTITLE=ン
DYEAR=2003
DGENRE=JPop
TTITLE0=恋愛15シミュレーション
TTITLE1=ファーストステップ
TTITLE2=恋愛15シミュレーション (berryX
TTITLE2=berry remix)
TTITLE3=恋愛15シミュレーション (Instru
TTITLE3=mental)
TTITLE4=DATA
EXTD=
EXTT0=
EXTT1=
EXTT2=
EXTT3=
EXTT4=
PLAYORDER=
